<?xml version="1.0" encoding="utf-8"?>
<!-- Generator: Adobe Illustrator 19.0.0, SVG Export Plug-In . SVG Version: 6.00 Build 0)  -->
<svg version="1.1" id="Calque_1" xmlns="http://www.w3.org/2000/svg" xmlns:xlink="http://www.w3.org/1999/xlink" x="0px" y="0px"
	 viewBox="0 0 51 50.4" style="enable-background:new 0 0 51 50.4;" xml:space="preserve">
<style type="text/css">
	.st0{fill:none;stroke:#80BCE8;stroke-width:2;stroke-miterlimit:10;}
	.st1{fill:#80BCE8;}
	.st2{font-family:'Museo-700';}
	.st3{font-size:10.5757px;}
	.st4{font-size:3.7191px;}
</style>
<path id="XMLID_16_" class="st0" d="M50,7.4C45.1,3.4,38.8,1,32,1C19.6,1,9.1,8.9,5.3,19.9h14C21.8,16.4,26,14,30.8,14
	c7.8,0,14.1,6.3,14.1,14.1s-6.3,14.1-14.1,14.1c-3.7,0-7-1.4-9.5-3.7H5.2c1.4,4.1,3.7,7.8,6.7,10.8H50V7.4z"/>
<text id="XMLID_15_" transform="matrix(1 0 0 1 0 30.4607)" class="st1 st2 st3">Milipol</text>
<text id="XMLID_14_" transform="matrix(1 0 0 1 0 35.2273)" class="st1 st2 st4">PARIS 2017</text>
</svg>
